<?xml version="1.0" encoding="utf-8"?>
<!-- Generator: Adobe Illustrator 17.0.0, SVG Export Plug-In . SVG Version: 6.00 Build 0)  -->
<!DOCTYPE svg PUBLIC "-//W3C//DTD SVG 1.1//EN" "http://www.w3.org/Graphics/SVG/1.1/DTD/svg11.dtd">
<svg version="1.1" id="Layer_1" xmlns="http://www.w3.org/2000/svg" xmlns:xlink="http://www.w3.org/1999/xlink" x="0px" y="0px"
	 width="351.582px" height="109.947px" viewBox="0 0 351.582 109.947" enable-background="new 0 0 351.582 109.947"
	 xml:space="preserve">
<g>
	<path fill="#5E0D8B" d="M0,18.379h21.272c17.144,0,28.985,11.766,28.985,27.116v0.157c0,15.349-11.841,27.274-28.985,27.274H0
		V18.379z M21.272,62.095c9.816,0,16.441-6.622,16.441-16.285v-0.157c0-9.662-6.625-16.441-16.441-16.441h-9.274v32.883H21.272z"/>
	<path fill="#5E0D8B" d="M53.751,45.81v-0.157c0-15.508,12.234-28.209,29.065-28.209c16.83,0,28.911,12.546,28.911,28.052v0.157
		c0,15.508-12.235,28.209-29.066,28.209C65.831,73.862,53.751,61.316,53.751,45.81z M99.179,45.81v-0.157
		c0-9.349-6.855-17.142-16.518-17.142c-9.662,0-16.364,7.636-16.364,16.985v0.157c0,9.349,6.858,17.144,16.519,17.144
		C92.481,62.797,99.179,55.159,99.179,45.81z"/>
	<path fill="#5E0D8B" d="M115.219,18.379h11.064l25.561,33.585V18.379h11.843v54.548h-10.21l-26.414-34.678v34.678h-11.843V18.379z"
		/>
	<path fill="#5E0D8B" d="M195.704,29.443h-16.598V18.379h45.195v11.064h-16.597v43.484h-12.001V29.443z"/>
	<path fill="#00953A" d="M227.593,45.81v-0.157c0-15.508,12.078-28.209,28.597-28.209c9.818,0,15.741,2.653,21.429,7.48
		l-7.558,9.117c-4.212-3.505-7.95-5.531-14.261-5.531c-8.729,0-15.661,7.713-15.661,16.985v0.157
		c0,9.974,6.858,17.299,16.517,17.299c4.363,0,8.26-1.091,11.301-3.273v-7.794H255.88V41.523h23.691v23.686
		c-5.61,4.755-13.33,8.652-23.305,8.652C239.281,73.862,227.593,61.941,227.593,45.81z"/>
	<path fill="#00953A" d="M283.064,45.81v-0.157c0-15.508,12.231-28.209,29.065-28.209c16.828,0,28.91,12.546,28.91,28.052v0.157
		c0,15.508-12.235,28.209-29.07,28.209C295.141,73.862,283.064,61.316,283.064,45.81z M328.492,45.81v-0.157
		c0-9.349-6.858-17.142-16.524-17.142c-9.657,0-16.362,7.636-16.362,16.985v0.157c0,9.349,6.858,17.144,16.523,17.144
		C321.792,62.797,328.492,55.159,328.492,45.81z"/>
	<rect x="167.656" y="18.379" fill="#5E0D8B" width="7.416" height="14.672"/>
	<path fill="#5E0D8B" d="M339.511,1.344h-95.199c-3.185,0-6.074,1.253-8.232,3.274l-4.204-4.32c-0.497-0.508-0.989-0.35-1.094,0.352
		l-2.109,13.902c-0.107,0.702,0.385,1.205,1.087,1.114l13.946-1.754c0.704-0.089,0.875-0.578,0.379-1.085l-4.102-4.208
		c1.152-1.043,2.655-1.707,4.331-1.707h95.199c3.585,0,6.5,2.918,6.5,6.503v63.139c0,3.583-2.915,6.501-6.5,6.501h-28.369v-0.005
		h-6.109l1.071,0.061h-0.914l-10.874,11.321V83.051h-6.106v0.005H234.82c-3.586,0-6.501-2.918-6.501-6.501v-1.117h-5.57v1.117
		c0,6.659,5.416,12.072,12.072,12.072h53.391v3.766l0.003,17.554l20.079-21.32h31.218c6.656,0,12.071-5.413,12.071-12.072V13.416
		C351.582,6.76,346.167,1.344,339.511,1.344z M306.113,83.109l0.001,0.004h-0.001V83.109z"/>
	<g>
		<path fill="#5E0D8B" d="M302.649,102.556h3.228v3.188h-3.228V102.556z"/>
		<path fill="#5E0D8B" d="M307.554,100.464v-0.039c0-3.048,2.331-5.558,5.597-5.558c2.011,0,3.267,0.678,4.262,1.793l-1.852,1.992
			c-0.677-0.717-1.354-1.176-2.429-1.176c-1.515,0-2.591,1.335-2.591,2.908v0.041c0,1.633,1.056,2.949,2.709,2.949
			c1.017,0,1.713-0.44,2.451-1.138l1.773,1.794c-1.037,1.135-2.231,1.951-4.363,1.951
			C309.903,105.982,307.554,103.512,307.554,100.464z"/>
		<path fill="#5E0D8B" d="M318.634,100.464v-0.039c0-3.067,2.47-5.558,5.796-5.558c3.306,0,5.756,2.451,5.756,5.517v0.041
			c0,3.067-2.471,5.557-5.797,5.557C321.083,105.982,318.634,103.533,318.634,100.464z M327.199,100.464v-0.039
			c0-1.573-1.135-2.948-2.809-2.948c-1.732,0-2.769,1.335-2.769,2.908v0.041c0,1.573,1.136,2.949,2.809,2.949
			C326.162,103.375,327.199,102.039,327.199,100.464z"/>
		<path fill="#5E0D8B" d="M332.384,95.067h3.029v1.514c0.697-0.897,1.614-1.714,3.146-1.714c1.395,0,2.451,0.618,3.009,1.693
			c0.936-1.094,2.052-1.693,3.504-1.693c2.251,0,3.606,1.355,3.606,3.925v6.951h-3.028v-5.956c0-1.433-0.638-2.172-1.773-2.172
			c-1.136,0-1.831,0.739-1.831,2.172v5.956h-3.029v-5.956c0-1.433-0.637-2.172-1.773-2.172c-1.135,0-1.832,0.739-1.832,2.172v5.956
			h-3.029V95.067z"/>
	</g>
</g>
</svg>
