<?xml version="1.0" encoding="utf-8"?>
<!-- Generator: Adobe Illustrator 17.0.0, SVG Export Plug-In . SVG Version: 6.00 Build 0)  -->
<!DOCTYPE svg PUBLIC "-//W3C//DTD SVG 1.1//EN" "http://www.w3.org/Graphics/SVG/1.1/DTD/svg11.dtd">
<svg version="1.1" id="Layer_1" xmlns="http://www.w3.org/2000/svg" xmlns:xlink="http://www.w3.org/1999/xlink" x="0px" y="0px"
	 width="424.667px" height="170.667px" viewBox="0 0 424.667 170.667" enable-background="new 0 0 424.667 170.667"
	 xml:space="preserve">
<path fill="#5E0D8B" d="M28.313,48.576h23.006c18.542,0,31.348,12.725,31.348,29.326v0.17c0,16.6-12.806,29.497-31.348,29.497
	H28.313V48.576z M51.319,95.854c10.616,0,17.781-7.162,17.781-17.612v-0.17c0-10.449-7.165-17.78-17.781-17.78h-10.03v35.563H51.319
	z"/>
<path fill="#5E0D8B" d="M86.445,78.242v-0.17c0-16.771,13.23-30.508,31.434-30.508c18.201,0,31.267,13.568,31.267,30.338v0.17
	c0,16.771-13.232,30.508-31.435,30.508C99.508,108.579,86.445,95.011,86.445,78.242z M135.575,78.242v-0.17
	c0-10.111-7.413-18.539-17.864-18.539c-10.45,0-17.698,8.258-17.698,18.369v0.17c0,10.111,7.417,18.541,17.865,18.541
	C128.33,96.613,135.575,88.353,135.575,78.242z"/>
<path fill="#5E0D8B" d="M152.922,48.576h11.966l27.644,36.322V48.576h12.808v58.993h-11.042L165.73,70.065v37.504h-12.809V48.576z"
	/>
<path fill="#5E0D8B" d="M227.245,60.541h-17.95V48.576h48.878v11.966h-17.949v47.027h-12.979V60.541z"/>
<path fill="#00953A" d="M261.734,78.242v-0.17c0-16.771,13.063-30.508,30.928-30.508c10.618,0,17.023,2.869,23.176,8.09l-8.174,9.86
	c-4.556-3.79-8.598-5.981-15.423-5.981c-9.44,0-16.938,8.342-16.938,18.369v0.17c0,10.787,7.417,18.709,17.863,18.709
	c4.719,0,8.934-1.18,12.222-3.54v-8.429h-13.062V73.606h25.622v25.616c-6.067,5.143-14.416,9.357-25.204,9.357
	C274.373,108.579,261.734,95.687,261.734,78.242z"/>
<path fill="#00953A" d="M321.725,78.242v-0.17c0-16.771,13.228-30.508,31.434-30.508c18.199,0,31.266,13.568,31.266,30.338v0.17
	c0,16.771-13.232,30.508-31.439,30.508C334.786,108.579,321.725,95.011,321.725,78.242z M370.855,78.242v-0.17
	c0-10.111-7.417-18.539-17.87-18.539c-10.444,0-17.695,8.258-17.695,18.369v0.17c0,10.111,7.417,18.541,17.869,18.541
	C363.609,96.613,370.855,88.353,370.855,78.242z"/>
<path fill="#5E0D8B" d="M382.772,30.152H279.815c-3.444,0-6.569,1.355-8.903,3.541l-4.547-4.672
	c-0.537-0.55-1.069-0.379-1.184,0.381L262.9,44.437c-0.115,0.759,0.416,1.303,1.176,1.205l15.082-1.896
	c0.762-0.097,0.946-0.625,0.41-1.174l-4.436-4.551c1.246-1.128,2.871-1.846,4.684-1.846h102.957c3.877,0,7.029,3.156,7.029,7.033
	v68.284c0,3.875-3.152,7.031-7.029,7.031h-30.681v-0.006h-6.606l1.158,0.066h-0.988l-11.76,12.243v-12.31h-6.603v0.006h-57.742
	c-3.878,0-7.031-3.156-7.031-7.031v-1.208h-6.024v1.208c0,7.201,5.857,13.056,13.056,13.056h57.742v4.073l0.003,18.984
	l21.716-23.058h33.762c7.198,0,13.055-5.854,13.055-13.056V43.208C395.826,36.009,389.97,30.152,382.772,30.152z M346.652,118.58
	l0.001,0.004h-0.001V118.58z"/>
<g>
	<path fill="#5E0D8B" d="M342.905,139.613h3.491v3.447h-3.491V139.613z"/>
	<path fill="#5E0D8B" d="M348.21,137.35v-0.042c0-3.296,2.521-6.011,6.053-6.011c2.175,0,3.533,0.733,4.609,1.939l-2.003,2.154
		c-0.732-0.775-1.464-1.271-2.627-1.271c-1.639,0-2.802,1.443-2.802,3.145v0.044c0,1.767,1.143,3.189,2.93,3.189
		c1.1,0,1.853-0.476,2.65-1.23l1.917,1.94c-1.121,1.228-2.413,2.11-4.719,2.11C350.751,143.318,348.21,140.646,348.21,137.35z"/>
	<path fill="#5E0D8B" d="M360.194,137.35v-0.042c0-3.316,2.671-6.011,6.268-6.011c3.575,0,6.226,2.65,6.226,5.967v0.044
		c0,3.317-2.672,6.01-6.27,6.01C362.842,143.318,360.194,140.669,360.194,137.35z M369.456,137.35v-0.042
		c0-1.701-1.228-3.189-3.038-3.189c-1.873,0-2.994,1.443-2.994,3.145v0.044c0,1.701,1.229,3.189,3.038,3.189
		C368.335,140.497,369.456,139.053,369.456,137.35z"/>
	<path fill="#5E0D8B" d="M375.064,131.513h3.275v1.638c0.754-0.97,1.745-1.854,3.402-1.854c1.509,0,2.65,0.668,3.254,1.831
		c1.012-1.184,2.219-1.831,3.79-1.831c2.434,0,3.899,1.466,3.899,4.245v7.518h-3.274v-6.441c0-1.55-0.69-2.349-1.917-2.349
		c-1.228,0-1.98,0.799-1.98,2.349v6.441h-3.275v-6.441c0-1.55-0.689-2.349-1.917-2.349c-1.228,0-1.981,0.799-1.981,2.349v6.441
		h-3.275V131.513z"/>
</g>
</svg>
