<?xml version="1.0" encoding="iso-8859-1"?>
<!-- Generator: Adobe Illustrator 16.0.0, SVG Export Plug-In . SVG Version: 6.00 Build 0)  -->
<!DOCTYPE svg PUBLIC "-//W3C//DTD SVG 1.1//EN" "http://www.w3.org/Graphics/SVG/1.1/DTD/svg11.dtd">
<svg version="1.1" id="Layer_1" xmlns="http://www.w3.org/2000/svg" xmlns:xlink="http://www.w3.org/1999/xlink" x="0px" y="0px"
	 width="144.723px" height="45.258px" viewBox="0 0 144.723 45.258" style="enable-background:new 0 0 144.723 45.258;"
	 xml:space="preserve">
<g>
	<path style="fill:#5E0D8B;" d="M0,7.565h8.756c7.057,0,11.932,4.843,11.932,11.162v0.063c0,6.319-4.875,11.229-11.932,11.229H0
		V7.565z M8.756,25.561c4.041,0,6.769-2.727,6.769-6.704v-0.066c0-3.976-2.729-6.766-6.769-6.766H4.939v13.536H8.756z"/>
	<path style="fill:#5E0D8B;" d="M22.125,18.857v-0.066c0-6.383,5.036-11.611,11.965-11.611c6.927,0,11.9,5.166,11.9,11.547v0.063
		c0,6.385-5.036,11.613-11.964,11.613C27.098,30.404,22.125,25.24,22.125,18.857z M40.826,18.857v-0.066
		c0-3.848-2.822-7.055-6.8-7.055c-3.977,0-6.736,3.142-6.736,6.991v0.063c0,3.851,2.823,7.058,6.8,7.058
		C38.068,25.849,40.826,22.706,40.826,18.857z"/>
	<path style="fill:#5E0D8B;" d="M47.428,7.565h4.554l10.521,13.826V7.565h4.875V30.02h-4.202L52.303,15.744V30.02h-4.875V7.565z"/>
	<path style="fill:#5E0D8B;" d="M80.559,12.12h-6.832V7.565H92.33v4.554h-6.833v17.9h-4.939V12.12z"/>
	<path style="fill:#00953A;" d="M93.686,18.857v-0.066c0-6.383,4.972-11.611,11.771-11.611c4.041,0,6.48,1.092,8.821,3.08
		l-3.111,3.753c-1.734-1.442-3.272-2.277-5.87-2.277c-3.593,0-6.446,3.174-6.446,6.991v0.063c0,4.107,2.823,7.123,6.799,7.123
		c1.795,0,3.4-0.45,4.652-1.348v-3.208h-4.971v-4.266h9.75v9.75c-2.308,1.957-5.486,3.561-9.591,3.561
		C98.497,30.404,93.686,25.497,93.686,18.857z"/>
	<path style="fill:#00953A;" d="M116.519,18.857v-0.066c0-6.383,5.035-11.611,11.965-11.611c6.926,0,11.899,5.166,11.899,11.547
		v0.063c0,6.385-5.037,11.613-11.966,11.613C121.491,30.404,116.519,25.24,116.519,18.857z M135.219,18.857v-0.066
		c0-3.848-2.823-7.055-6.801-7.055c-3.977,0-6.736,3.142-6.736,6.991v0.063c0,3.851,2.824,7.058,6.802,7.058
		C132.461,25.849,135.219,22.706,135.219,18.857z"/>
	<rect x="69.013" y="7.565" style="fill:#5E0D8B;" width="3.052" height="6.04"/>
	<path style="fill:#5E0D8B;" d="M139.754,0.553h-39.188c-1.311,0-2.5,0.516-3.388,1.348l-1.731-1.779
		c-0.205-0.208-0.407-0.144-0.45,0.145l-0.87,5.723c-0.042,0.29,0.159,0.495,0.449,0.459l5.74-0.722
		c0.29-0.037,0.36-0.238,0.156-0.447l-1.688-1.732c0.474-0.429,1.093-0.703,1.782-0.703h39.188c1.476,0,2.676,1.201,2.676,2.676
		v25.991c0,1.475-1.2,2.676-2.676,2.676h-11.678v-0.002h-2.514l0.44,0.024h-0.376l-4.476,4.66v-4.685h-2.513v0.002H96.66
		c-1.477,0-2.676-1.201-2.676-2.676v-0.46h-2.293v0.46c0,2.741,2.229,4.969,4.969,4.969h21.978v1.55l0.001,7.225l8.266-8.775h12.85
		c2.74,0,4.969-2.228,4.969-4.969V5.522C144.723,2.782,142.495,0.553,139.754,0.553z M126.005,34.21L126.005,34.21L126.005,34.21
		L126.005,34.21z"/>
	<g>
		<path style="fill:#5E0D8B;" d="M124.331,43.467h1.262v1.247h-1.262V43.467z"/>
		<path style="fill:#5E0D8B;" d="M126.331,42.002v-0.015c0-1.55,1.169-2.82,2.843-2.82c1.027,0,1.644,0.343,2.151,0.841l-0.764,0.88
			c-0.421-0.381-0.85-0.614-1.395-0.614c-0.919,0-1.582,0.763-1.582,1.698v0.015c0,0.936,0.646,1.714,1.582,1.714
			c0.623,0,1.004-0.25,1.434-0.638l0.762,0.771c-0.56,0.6-1.183,0.973-2.236,0.973C127.522,44.807,126.331,43.568,126.331,42.002z"
			/>
		<path style="fill:#5E0D8B;" d="M132.1,42.002v-0.015c0-1.55,1.224-2.82,2.906-2.82c1.684,0,2.89,1.255,2.89,2.805v0.015
			c0,1.55-1.223,2.819-2.905,2.819C133.307,44.807,132.1,43.553,132.1,42.002z M136.643,42.002v-0.015
			c0-0.936-0.687-1.713-1.652-1.713c-0.965,0-1.635,0.763-1.635,1.698v0.015c0,0.936,0.686,1.714,1.65,1.714
			C135.972,43.701,136.643,42.938,136.643,42.002z"/>
		<path style="fill:#5E0D8B;" d="M138.633,39.261h1.294l1.434,2.306l1.433-2.306h1.294v5.453h-1.192v-3.561l-1.535,2.33h-0.032
			l-1.52-2.307v3.537h-1.176V39.261z"/>
	</g>
</g>
</svg>
