<?xml version="1.0" encoding="iso-8859-1"?>
<!-- Generator: Adobe Illustrator 16.0.0, SVG Export Plug-In . SVG Version: 6.00 Build 0)  -->
<!DOCTYPE svg PUBLIC "-//W3C//DTD SVG 1.1//EN" "http://www.w3.org/Graphics/SVG/1.1/DTD/svg11.dtd">
<svg version="1.1" id="Layer_1" xmlns="http://www.w3.org/2000/svg" xmlns:xlink="http://www.w3.org/1999/xlink" x="0px" y="0px"
	 width="96.3px" height="82.185px" viewBox="0 0 96.3 82.185" style="enable-background:new 0 0 96.3 82.185;" xml:space="preserve"
	>
<g>
	<g>
		<g>
			<path style="fill:#5E0D8B;" d="M87.278,1.003H16.115c-2.379,0-4.537,0.937-6.15,2.448L6.819,0.223
				c-0.37-0.379-0.736-0.262-0.813,0.262L4.428,10.877c-0.081,0.526,0.285,0.9,0.814,0.834l10.421-1.31
				c0.526-0.068,0.653-0.432,0.284-0.813l-3.065-3.145c0.86-0.778,1.983-1.274,3.233-1.274h71.163c2.679,0,4.856,2.179,4.856,4.859
				v47.196c0,2.678-2.178,4.858-4.856,4.858H66.07v-0.003h-4.563l0.799,0.046h-0.682l-8.128,8.464v-8.51h-4.563v0.003H9.024
				c-2.683,0-4.859-2.181-4.859-4.858V56.39H0v0.834c0,4.977,4.048,9.023,9.024,9.023h39.908v2.815v13.122l15.01-15.938h23.336
				c4.973,0,9.021-4.047,9.021-9.023V10.028C96.3,5.052,92.251,1.003,87.278,1.003z M62.312,62.122l0.002,0.003h-0.002V62.122z"/>
			<g>
				<path style="fill:#00953A;" d="M44.455,26.489c0,5.407-3.094,8.75-8.047,8.75c-4.952,0-8.089-3.343-8.089-8.75
					c0-5.365,3.137-8.707,8.089-8.707C41.361,17.783,44.455,21.124,44.455,26.489z M32.9,26.489c0,3.055,1.32,4.911,3.508,4.911
					s3.509-1.856,3.509-4.911c0-3.053-1.321-4.91-3.509-4.91S32.9,23.437,32.9,26.489z M55.021,17.865h6.686L41.072,46.796h-6.688
					L55.021,17.865z M67.98,38.169c0,5.407-3.096,8.791-8.049,8.791c-4.951,0-8.088-3.384-8.088-8.791
					c0-5.365,3.137-8.708,8.088-8.708C64.885,29.461,67.98,32.804,67.98,38.169z M56.424,38.169c0,3.097,1.322,4.953,3.508,4.953
					c2.188,0,3.508-1.856,3.508-4.953c0-3.055-1.319-4.91-3.508-4.91C57.746,33.259,56.424,35.114,56.424,38.169z"/>
			</g>
		</g>
	</g>
</g>
</svg>
